TITLE ""
FILE "P1Q_t_0401-0409.mp3" MP3
  TRACK 01 AUDIO
    TITLE "P1Q_t_0401-0409_01"
    INDEX 01 00:00:00
  TRACK 02 AUDIO
    TITLE "P1Q_t_0401-0409_02"
    INDEX 01 00:01:63
  TRACK 03 AUDIO
    TITLE "P1Q_t_0401-0409_03"
    INDEX 01 00:02:33
  TRACK 04 AUDIO
    TITLE "P1Q_t_0401-0409_04"
    INDEX 01 00:03:38
  TRACK 05 AUDIO
    TITLE "P1Q_t_0401-0409_05"
    INDEX 01 00:04:10
  TRACK 06 AUDIO
    TITLE "P1Q_t_0401-0409_06"
    INDEX 01 00:05:23
  TRACK 07 AUDIO
    TITLE "P1Q_t_0401-0409_07"
    INDEX 01 00:05:45
  TRACK 08 AUDIO
    TITLE "P1Q_t_0401-0409_08"
    INDEX 01 00:08:63
  TRACK 09 AUDIO
    TITLE "P1Q_t_0401-0409_09"
    INDEX 01 00:09:07
  TRACK 10 AUDIO
    TITLE "P1Q_t_0401-0409_10"
    INDEX 01 00:13:50
  TRACK 11 AUDIO
    TITLE "P1Q_t_0401-0409_11"
    INDEX 01 00:14:22
  TRACK 12 AUDIO
    TITLE "P1Q_t_0401-0409_12"
    INDEX 01 00:15:43
  TRACK 13 AUDIO
    TITLE "P1Q_t_0401-0409_13"
    INDEX 01 00:15:63
  TRACK 14 AUDIO
    TITLE "P1Q_t_0401-0409_14"
    INDEX 01 00:18:65
  TRACK 15 AUDIO
    TITLE "P1Q_t_0401-0409_15"
    INDEX 01 00:19:15
  TRACK 16 AUDIO
    TITLE "P1Q_t_0401-0409_16"
    INDEX 01 00:22:55
  TRACK 17 AUDIO
    TITLE "P1Q_t_0401-0409_17"
    INDEX 01 00:23:27
  TRACK 18 AUDIO
    TITLE "P1Q_t_0401-0409_18"
    INDEX 01 00:24:52
  TRACK 19 AUDIO
    TITLE "P1Q_t_0401-0409_19"
    INDEX 01 00:24:72
  TRACK 20 AUDIO
    TITLE "P1Q_t_0401-0409_20"
    INDEX 01 00:28:63
  TRACK 21 AUDIO
    TITLE "P1Q_t_0401-0409_21"
    INDEX 01 00:29:10
  TRACK 22 AUDIO
    TITLE "P1Q_t_0401-0409_22"
    INDEX 01 00:32:51
  TRACK 23 AUDIO
    TITLE "P1Q_t_0401-0409_23"
    INDEX 01 00:33:22
  TRACK 24 AUDIO
    TITLE "P1Q_t_0401-0409_24"
    INDEX 01 00:34:37
  TRACK 25 AUDIO
    TITLE "P1Q_t_0401-0409_25"
    INDEX 01 00:34:58
  TRACK 26 AUDIO
    TITLE "P1Q_t_0401-0409_26"
    INDEX 01 00:37:00
  TRACK 27 AUDIO
    TITLE "P1Q_t_0401-0409_27"
    INDEX 01 00:37:19
  TRACK 28 AUDIO
    TITLE "P1Q_t_0401-0409_28"
    INDEX 01 00:42:01
  TRACK 29 AUDIO
    TITLE "P1Q_t_0401-0409_29"
    INDEX 01 00:42:46
  TRACK 30 AUDIO
    TITLE "P1Q_t_0401-0409_30"
    INDEX 01 00:43:71
  TRACK 31 AUDIO
    TITLE "P1Q_t_0401-0409_31"
    INDEX 01 00:44:17
  TRACK 32 AUDIO
    TITLE "P1Q_t_0401-0409_32"
    INDEX 01 00:46:61
  TRACK 33 AUDIO
    TITLE "P1Q_t_0401-0409_33"
    INDEX 01 00:47:06
  TRACK 34 AUDIO
    TITLE "P1Q_t_0401-0409_34"
    INDEX 01 00:52:01
  TRACK 35 AUDIO
    TITLE "P1Q_t_0401-0409_35"
    INDEX 01 00:52:46
  TRACK 36 AUDIO
    TITLE "P1Q_t_0401-0409_36"
    INDEX 01 00:53:63
  TRACK 37 AUDIO
    TITLE "P1Q_t_0401-0409_37"
    INDEX 01 00:54:10
  TRACK 38 AUDIO
    TITLE "P1Q_t_0401-0409_38"
    INDEX 01 00:57:63
  TRACK 39 AUDIO
    TITLE "P1Q_t_0401-0409_39"
    INDEX 01 00:58:08
  TRACK 40 AUDIO
    TITLE "P1Q_t_0401-0409_40"
    INDEX 01 01:02:43
  TRACK 41 AUDIO
    TITLE "P1Q_t_0401-0409_41"
    INDEX 01 01:03:13
  TRACK 42 AUDIO
    TITLE "P1Q_t_0401-0409_42"
    INDEX 01 01:04:36
  TRACK 43 AUDIO
    TITLE "P1Q_t_0401-0409_43"
    INDEX 01 01:04:57
  TRACK 44 AUDIO
    TITLE "P1Q_t_0401-0409_44"
    INDEX 01 01:08:18
  TRACK 45 AUDIO
    TITLE "P1Q_t_0401-0409_45"
    INDEX 01 01:08:37
  TRACK 46 AUDIO
    TITLE "P1Q_t_0401-0409_46"
    INDEX 01 01:12:08
  TRACK 47 AUDIO
    TITLE "P1Q_t_0401-0409_47"
    INDEX 01 01:12:55
  TRACK 48 AUDIO
    TITLE "P1Q_t_0401-0409_48"
    INDEX 01 01:13:70
  TRACK 49 AUDIO
    TITLE "P1Q_t_0401-0409_49"
    INDEX 01 01:14:15
  TRACK 50 AUDIO
    TITLE "P1Q_t_0401-0409_50"
    INDEX 01 01:17:15
  TRACK 51 AUDIO
    TITLE "P1Q_t_0401-0409_51"
    INDEX 01 01:17:36
  TRACK 52 AUDIO
    TITLE "P1Q_t_0401-0409_52"
    INDEX 01 01:21:52
  TRACK 53 AUDIO
    TITLE "P1Q_t_0401-0409_53"
    INDEX 01 01:22:24
  TRACK 54 AUDIO
    TITLE "P1Q_t_0401-0409_54"
    INDEX 01 01:23:55
  TRACK 55 AUDIO
    TITLE "P1Q_t_0401-0409_55"
    INDEX 01 01:23:59
  TRACK 56 AUDIO
    TITLE "P1Q_t_0401-0409_56"
    INDEX 01 01:25:22
  TRACK 57 AUDIO
    TITLE "P1Q_t_0401-0409_57"
    INDEX 01 01:25:42
  TRACK 58 AUDIO
    TITLE "P1Q_t_0401-0409_58"
    INDEX 01 01:31:56
